<?xml version="1.0" standalone="no"?><svg xmlns="http://www.w3.org/2000/svg" viewBox="0 0 1440 320"><path fill="#0099ff" fill-opacity="1" d="M0,32L26.7,42.7C53.3,53,107,75,160,96C213.3,117,267,139,320,122.7C373.3,107,427,53,480,58.7C533.3,64,587,128,640,149.3C693.3,171,747,149,800,165.3C853.3,181,907,235,960,261.3C1013.3,288,1067,288,1120,272C1173.3,256,1227,224,1280,202.7C1333.3,181,1387,171,1413,165.3L1440,160L1440,0L1413.3,0C1386.7,0,1333,0,1280,0C1226.7,0,1173,0,1120,0C1066.7,0,1013,0,960,0C906.7,0,853,0,800,0C746.7,0,693,0,640,0C586.7,0,533,0,480,0C426.7,0,373,0,320,0C266.7,0,213,0,160,0C106.7,0,53,0,27,0L0,0Z"></path></svg>